<mxfile host="Electron" modified="2024-01-05T20:21:04.983Z" agent="Mozilla/5.0 (Windows NT 10.0; Win64; x64) AppleWebKit/537.36 (KHTML, like Gecko) draw.io/22.1.16 Chrome/120.0.6099.109 Electron/28.1.0 Safari/537.36" version="22.1.16" etag="gJ8XSpM67fkFYGtxYSLj" type="device">
  <diagram id="0hqk3zeWQtQj_Qt4gPwC" name="Page-1">
    <mxGraphModel dx="1098" dy="2112" grid="0" gridSize="10" guides="1" tooltips="1" connect="1" arrows="1" fold="1" page="1" pageScale="1" pageWidth="850" pageHeight="1100" math="1" shadow="0">
      <root>
        <mxCell id="0" />
        <mxCell id="1" parent="0" />
        <mxCell id="462" value="" style="rounded=0;whiteSpace=wrap;html=1;strokeColor=#6c8ebf;strokeWidth=1;fontFamily=Garamond;fontSize=17;fillColor=#dae8fc;dashed=1;dashPattern=12 12;" parent="1" vertex="1">
          <mxGeometry x="16" y="19" width="825" height="383" as="geometry" />
        </mxCell>
        <mxCell id="57" value="" style="verticalLabelPosition=bottom;verticalAlign=top;html=1;shape=offPageConnector;rounded=0;size=0.5;strokeWidth=1;fillColor=none;rotation=-180;" parent="1" vertex="1">
          <mxGeometry x="89.75" y="502" width="32.5" height="40" as="geometry" />
        </mxCell>
        <mxCell id="25" style="edgeStyle=elbowEdgeStyle;html=1;entryX=0;entryY=0.5;entryDx=0;entryDy=0;endArrow=classicThin;endFill=1;exitX=0;exitY=0.5;exitDx=0;exitDy=0;" parent="1" source="2" target="3" edge="1">
          <mxGeometry relative="1" as="geometry">
            <Array as="points">
              <mxPoint x="57" y="742" />
            </Array>
          </mxGeometry>
        </mxCell>
        <mxCell id="2" value="" style="rounded=1;whiteSpace=wrap;html=1;" parent="1" vertex="1">
          <mxGeometry x="87" y="761" width="120" height="30" as="geometry" />
        </mxCell>
        <mxCell id="9" value="" style="group" parent="1" vertex="1" connectable="0">
          <mxGeometry x="87" y="689" width="120" height="20" as="geometry" />
        </mxCell>
        <mxCell id="3" value="" style="rounded=0;whiteSpace=wrap;html=1;" parent="9" vertex="1">
          <mxGeometry width="20" height="20" as="geometry" />
        </mxCell>
        <mxCell id="4" value="" style="rounded=0;whiteSpace=wrap;html=1;" parent="9" vertex="1">
          <mxGeometry x="20" width="20" height="20" as="geometry" />
        </mxCell>
        <mxCell id="5" value="" style="rounded=0;whiteSpace=wrap;html=1;" parent="9" vertex="1">
          <mxGeometry x="40" width="20" height="20" as="geometry" />
        </mxCell>
        <mxCell id="6" value="" style="rounded=0;whiteSpace=wrap;html=1;" parent="9" vertex="1">
          <mxGeometry x="60" width="20" height="20" as="geometry" />
        </mxCell>
        <mxCell id="7" value="" style="rounded=0;whiteSpace=wrap;html=1;" parent="9" vertex="1">
          <mxGeometry x="80" width="20" height="20" as="geometry" />
        </mxCell>
        <mxCell id="8" value="" style="rounded=0;whiteSpace=wrap;html=1;" parent="9" vertex="1">
          <mxGeometry x="100" width="20" height="20" as="geometry" />
        </mxCell>
        <mxCell id="10" value="" style="group;fillColor=none;fontColor=#ffffff;strokeColor=#2D7600;" parent="1" vertex="1" connectable="0">
          <mxGeometry x="87" y="718" width="120" height="20" as="geometry" />
        </mxCell>
        <mxCell id="11" value="" style="rounded=0;whiteSpace=wrap;html=1;fillColor=none;fontColor=#ffffff;strokeColor=#2D7600;" parent="10" vertex="1">
          <mxGeometry width="20" height="20" as="geometry" />
        </mxCell>
        <mxCell id="12" value="" style="rounded=0;whiteSpace=wrap;html=1;fillColor=none;fontColor=#ffffff;strokeColor=#2D7600;" parent="10" vertex="1">
          <mxGeometry x="20" width="20" height="20" as="geometry" />
        </mxCell>
        <mxCell id="13" value="" style="rounded=0;whiteSpace=wrap;html=1;fillColor=none;fontColor=#ffffff;strokeColor=#2D7600;" parent="10" vertex="1">
          <mxGeometry x="40" width="20" height="20" as="geometry" />
        </mxCell>
        <mxCell id="14" value="" style="rounded=0;whiteSpace=wrap;html=1;fillColor=none;fontColor=#ffffff;strokeColor=#2D7600;" parent="10" vertex="1">
          <mxGeometry x="60" width="20" height="20" as="geometry" />
        </mxCell>
        <mxCell id="15" value="" style="rounded=0;whiteSpace=wrap;html=1;fillColor=none;fontColor=#ffffff;strokeColor=#2D7600;" parent="10" vertex="1">
          <mxGeometry x="80" width="20" height="20" as="geometry" />
        </mxCell>
        <mxCell id="16" value="" style="rounded=0;whiteSpace=wrap;html=1;fillColor=none;fontColor=#ffffff;strokeColor=#2D7600;" parent="10" vertex="1">
          <mxGeometry x="100" width="20" height="20" as="geometry" />
        </mxCell>
        <mxCell id="20" value="" style="group" parent="1" vertex="1" connectable="0">
          <mxGeometry x="137" y="650" width="20" height="20" as="geometry" />
        </mxCell>
        <mxCell id="17" value="" style="ellipse;whiteSpace=wrap;html=1;aspect=fixed;fillColor=none;" parent="20" vertex="1">
          <mxGeometry width="20" height="20" as="geometry" />
        </mxCell>
        <mxCell id="18" value="" style="endArrow=none;html=1;entryX=0.5;entryY=0;entryDx=0;entryDy=0;exitX=0.5;exitY=1;exitDx=0;exitDy=0;" parent="20" source="17" target="17" edge="1">
          <mxGeometry width="50" height="50" relative="1" as="geometry">
            <mxPoint x="60" y="120" as="sourcePoint" />
            <mxPoint x="110" y="70" as="targetPoint" />
          </mxGeometry>
        </mxCell>
        <mxCell id="19" value="" style="endArrow=none;html=1;exitX=0;exitY=0.5;exitDx=0;exitDy=0;entryX=1;entryY=0.5;entryDx=0;entryDy=0;" parent="20" source="17" target="17" edge="1">
          <mxGeometry width="50" height="50" relative="1" as="geometry">
            <mxPoint x="60" y="120" as="sourcePoint" />
            <mxPoint x="110" y="70" as="targetPoint" />
          </mxGeometry>
        </mxCell>
        <mxCell id="21" value="" style="endArrow=classic;html=1;exitX=0;exitY=0;exitDx=0;exitDy=0;entryX=0.5;entryY=1;entryDx=0;entryDy=0;" parent="1" source="6" target="17" edge="1">
          <mxGeometry width="50" height="50" relative="1" as="geometry">
            <mxPoint x="187" y="632" as="sourcePoint" />
            <mxPoint x="147" y="662" as="targetPoint" />
          </mxGeometry>
        </mxCell>
        <mxCell id="22" value="" style="endArrow=classicThin;html=1;edgeStyle=elbowEdgeStyle;exitX=1;exitY=0.5;exitDx=0;exitDy=0;entryX=1;entryY=0.5;entryDx=0;entryDy=0;endFill=1;" parent="1" source="16" target="17" edge="1">
          <mxGeometry width="50" height="50" relative="1" as="geometry">
            <mxPoint x="187" y="632" as="sourcePoint" />
            <mxPoint x="237" y="582" as="targetPoint" />
            <Array as="points">
              <mxPoint x="237" y="702" />
            </Array>
          </mxGeometry>
        </mxCell>
        <mxCell id="26" value="" style="group" parent="1" vertex="1" connectable="0">
          <mxGeometry x="87" y="592" width="120" height="25" as="geometry" />
        </mxCell>
        <mxCell id="27" value="" style="rounded=0;whiteSpace=wrap;html=1;" parent="26" vertex="1">
          <mxGeometry y="19" width="20" height="20" as="geometry" />
        </mxCell>
        <mxCell id="28" value="" style="rounded=0;whiteSpace=wrap;html=1;" parent="26" vertex="1">
          <mxGeometry x="20" y="19" width="20" height="20" as="geometry" />
        </mxCell>
        <mxCell id="29" value="" style="rounded=0;whiteSpace=wrap;html=1;" parent="26" vertex="1">
          <mxGeometry x="40" y="19" width="20" height="20" as="geometry" />
        </mxCell>
        <mxCell id="30" value="" style="rounded=0;whiteSpace=wrap;html=1;" parent="26" vertex="1">
          <mxGeometry x="60" y="19" width="20" height="20" as="geometry" />
        </mxCell>
        <mxCell id="31" value="" style="rounded=0;whiteSpace=wrap;html=1;" parent="26" vertex="1">
          <mxGeometry x="80" y="19" width="20" height="20" as="geometry" />
        </mxCell>
        <mxCell id="32" value="" style="rounded=0;whiteSpace=wrap;html=1;" parent="26" vertex="1">
          <mxGeometry x="100" y="19" width="20" height="20" as="geometry" />
        </mxCell>
        <mxCell id="65" value="$$\tilde{c}_1$$" style="text;align=center;verticalAlign=middle;resizable=0;points=[];autosize=1;strokeColor=none;fillColor=none;html=1;" parent="26" vertex="1">
          <mxGeometry x="-65" y="14" width="100" height="30" as="geometry" />
        </mxCell>
        <mxCell id="33" style="edgeStyle=orthogonalEdgeStyle;html=1;exitX=0.5;exitY=0;exitDx=0;exitDy=0;entryX=0;entryY=1;entryDx=0;entryDy=0;endArrow=classicThin;endFill=1;" parent="1" source="17" target="30" edge="1">
          <mxGeometry relative="1" as="geometry" />
        </mxCell>
        <mxCell id="34" value="" style="group;fillColor=#d80073;fontColor=#ffffff;strokeColor=#A50040;rotation=-90;" parent="1" vertex="1" connectable="0">
          <mxGeometry x="46" y="412" width="120" height="20" as="geometry" />
        </mxCell>
        <mxCell id="35" value="" style="rounded=0;whiteSpace=wrap;html=1;fillColor=#d80073;fontColor=#ffffff;strokeColor=#A50040;rotation=-90;" parent="34" vertex="1">
          <mxGeometry x="50" y="50" width="20" height="20" as="geometry" />
        </mxCell>
        <mxCell id="36" value="" style="rounded=0;whiteSpace=wrap;html=1;fillColor=#d80073;fontColor=#ffffff;strokeColor=#A50040;rotation=-90;" parent="34" vertex="1">
          <mxGeometry x="50" y="30" width="20" height="20" as="geometry" />
        </mxCell>
        <mxCell id="37" value="" style="rounded=0;whiteSpace=wrap;html=1;fillColor=#d80073;fontColor=#ffffff;strokeColor=#A50040;rotation=-90;" parent="34" vertex="1">
          <mxGeometry x="50" y="10" width="20" height="20" as="geometry" />
        </mxCell>
        <mxCell id="38" value="" style="rounded=0;whiteSpace=wrap;html=1;fillColor=#d80073;fontColor=#ffffff;strokeColor=#A50040;rotation=-90;" parent="34" vertex="1">
          <mxGeometry x="50" y="-10" width="20" height="20" as="geometry" />
        </mxCell>
        <mxCell id="39" value="" style="rounded=0;whiteSpace=wrap;html=1;fillColor=#d80073;fontColor=#ffffff;strokeColor=#A50040;rotation=-90;" parent="34" vertex="1">
          <mxGeometry x="50" y="-30" width="20" height="20" as="geometry" />
        </mxCell>
        <mxCell id="40" value="" style="rounded=0;whiteSpace=wrap;html=1;fillColor=#d80073;fontColor=#ffffff;strokeColor=#A50040;rotation=-90;" parent="34" vertex="1">
          <mxGeometry x="50" y="-50" width="20" height="20" as="geometry" />
        </mxCell>
        <mxCell id="58" style="edgeStyle=orthogonalEdgeStyle;curved=1;html=1;entryX=0;entryY=0.5;entryDx=0;entryDy=0;endArrow=classic;endFill=1;" parent="1" source="57" target="35" edge="1">
          <mxGeometry relative="1" as="geometry" />
        </mxCell>
        <mxCell id="64" value="$$W_q$$" style="text;align=center;verticalAlign=middle;resizable=0;points=[];autosize=1;strokeColor=none;fillColor=none;html=1;" parent="1" vertex="1">
          <mxGeometry x="68" y="512" width="70" height="30" as="geometry" />
        </mxCell>
        <mxCell id="66" value="$${c}_1$$" style="text;align=center;verticalAlign=middle;resizable=0;points=[];autosize=1;strokeColor=none;fillColor=none;html=1;" parent="1" vertex="1">
          <mxGeometry x="183" y="683" width="80" height="30" as="geometry" />
        </mxCell>
        <mxCell id="67" value="$${p}_1$$" style="text;align=center;verticalAlign=middle;resizable=0;points=[];autosize=1;strokeColor=none;fillColor=none;html=1;" parent="1" vertex="1">
          <mxGeometry x="37" y="713" width="80" height="30" as="geometry" />
        </mxCell>
        <mxCell id="69" value="" style="group;fillColor=#0050ef;fontColor=#ffffff;strokeColor=#001DBC;rotation=-90;" parent="1" vertex="1" connectable="0">
          <mxGeometry x="86" y="412" width="120" height="20" as="geometry" />
        </mxCell>
        <mxCell id="70" value="" style="rounded=0;whiteSpace=wrap;html=1;fillColor=#0050ef;fontColor=#ffffff;strokeColor=#001DBC;rotation=-90;" parent="69" vertex="1">
          <mxGeometry x="50" y="50" width="20" height="20" as="geometry" />
        </mxCell>
        <mxCell id="71" value="" style="rounded=0;whiteSpace=wrap;html=1;fillColor=#0050ef;fontColor=#ffffff;strokeColor=#001DBC;rotation=-90;" parent="69" vertex="1">
          <mxGeometry x="50" y="30" width="20" height="20" as="geometry" />
        </mxCell>
        <mxCell id="72" value="" style="rounded=0;whiteSpace=wrap;html=1;fillColor=#0050ef;fontColor=#ffffff;strokeColor=#001DBC;rotation=-90;" parent="69" vertex="1">
          <mxGeometry x="50" y="10" width="20" height="20" as="geometry" />
        </mxCell>
        <mxCell id="73" value="" style="rounded=0;whiteSpace=wrap;html=1;fillColor=#0050ef;fontColor=#ffffff;strokeColor=#001DBC;rotation=-90;" parent="69" vertex="1">
          <mxGeometry x="50" y="-10" width="20" height="20" as="geometry" />
        </mxCell>
        <mxCell id="74" value="" style="rounded=0;whiteSpace=wrap;html=1;fillColor=#0050ef;fontColor=#ffffff;strokeColor=#001DBC;rotation=-90;" parent="69" vertex="1">
          <mxGeometry x="50" y="-30" width="20" height="20" as="geometry" />
        </mxCell>
        <mxCell id="75" value="" style="rounded=0;whiteSpace=wrap;html=1;fillColor=#0050ef;fontColor=#ffffff;strokeColor=#001DBC;rotation=-90;" parent="69" vertex="1">
          <mxGeometry x="50" y="-50" width="20" height="20" as="geometry" />
        </mxCell>
        <mxCell id="76" style="edgeStyle=orthogonalEdgeStyle;curved=1;html=1;entryX=0;entryY=0.5;entryDx=0;entryDy=0;endArrow=classic;endFill=1;" parent="1" source="77" target="70" edge="1">
          <mxGeometry relative="1" as="geometry" />
        </mxCell>
        <mxCell id="77" value="" style="verticalLabelPosition=bottom;verticalAlign=top;html=1;shape=offPageConnector;rounded=0;size=0.5;strokeWidth=1;fillColor=none;rotation=-180;" parent="1" vertex="1">
          <mxGeometry x="129.75" y="502" width="32.5" height="40" as="geometry" />
        </mxCell>
        <mxCell id="78" value="" style="group;fillColor=#60a917;fontColor=#ffffff;strokeColor=#2D7600;rotation=-90;" parent="1" vertex="1" connectable="0">
          <mxGeometry x="126.75" y="412" width="120" height="20" as="geometry" />
        </mxCell>
        <mxCell id="79" value="" style="rounded=0;whiteSpace=wrap;html=1;fillColor=#60a917;fontColor=#ffffff;strokeColor=#2D7600;rotation=-90;" parent="78" vertex="1">
          <mxGeometry x="50" y="50" width="20" height="20" as="geometry" />
        </mxCell>
        <mxCell id="80" value="" style="rounded=0;whiteSpace=wrap;html=1;fillColor=#60a917;fontColor=#ffffff;strokeColor=#2D7600;rotation=-90;" parent="78" vertex="1">
          <mxGeometry x="50" y="30" width="20" height="20" as="geometry" />
        </mxCell>
        <mxCell id="81" value="" style="rounded=0;whiteSpace=wrap;html=1;fillColor=#60a917;fontColor=#ffffff;strokeColor=#2D7600;rotation=-90;" parent="78" vertex="1">
          <mxGeometry x="50" y="10" width="20" height="20" as="geometry" />
        </mxCell>
        <mxCell id="82" value="" style="rounded=0;whiteSpace=wrap;html=1;fillColor=#60a917;fontColor=#ffffff;strokeColor=#2D7600;rotation=-90;" parent="78" vertex="1">
          <mxGeometry x="50" y="-10" width="20" height="20" as="geometry" />
        </mxCell>
        <mxCell id="83" value="" style="rounded=0;whiteSpace=wrap;html=1;fillColor=#60a917;fontColor=#ffffff;strokeColor=#2D7600;rotation=-90;" parent="78" vertex="1">
          <mxGeometry x="50" y="-30" width="20" height="20" as="geometry" />
        </mxCell>
        <mxCell id="84" value="" style="rounded=0;whiteSpace=wrap;html=1;fillColor=#60a917;fontColor=#ffffff;strokeColor=#2D7600;rotation=-90;" parent="78" vertex="1">
          <mxGeometry x="50" y="-50" width="20" height="20" as="geometry" />
        </mxCell>
        <mxCell id="85" style="edgeStyle=orthogonalEdgeStyle;curved=1;html=1;entryX=0;entryY=0.5;entryDx=0;entryDy=0;endArrow=classic;endFill=1;" parent="1" source="86" target="79" edge="1">
          <mxGeometry relative="1" as="geometry" />
        </mxCell>
        <mxCell id="86" value="" style="verticalLabelPosition=bottom;verticalAlign=top;html=1;shape=offPageConnector;rounded=0;size=0.5;strokeWidth=1;fillColor=none;rotation=-180;" parent="1" vertex="1">
          <mxGeometry x="170.5" y="502" width="32.5" height="40" as="geometry" />
        </mxCell>
        <mxCell id="87" value="$$W_k$$" style="text;align=center;verticalAlign=middle;resizable=0;points=[];autosize=1;strokeColor=none;fillColor=none;html=1;" parent="1" vertex="1">
          <mxGeometry x="111" y="512" width="70" height="30" as="geometry" />
        </mxCell>
        <mxCell id="88" value="$$W_v$$" style="text;align=center;verticalAlign=middle;resizable=0;points=[];autosize=1;strokeColor=none;fillColor=none;html=1;" parent="1" vertex="1">
          <mxGeometry x="151.75" y="512" width="70" height="30" as="geometry" />
        </mxCell>
        <mxCell id="89" value="" style="curved=1;endArrow=classic;html=1;exitX=0;exitY=0;exitDx=0;exitDy=0;entryX=0.486;entryY=1.05;entryDx=0;entryDy=0;entryPerimeter=0;edgeStyle=orthogonalEdgeStyle;" parent="1" source="30" target="64" edge="1">
          <mxGeometry width="50" height="50" relative="1" as="geometry">
            <mxPoint x="197" y="532" as="sourcePoint" />
            <mxPoint x="247" y="482" as="targetPoint" />
          </mxGeometry>
        </mxCell>
        <mxCell id="90" value="" style="endArrow=classic;html=1;exitX=0;exitY=0;exitDx=0;exitDy=0;" parent="1" source="30" target="87" edge="1">
          <mxGeometry width="50" height="50" relative="1" as="geometry">
            <mxPoint x="188" y="609.5" as="sourcePoint" />
            <mxPoint x="157" y="542" as="targetPoint" />
          </mxGeometry>
        </mxCell>
        <mxCell id="91" style="edgeStyle=orthogonalEdgeStyle;curved=1;html=1;exitX=0;exitY=0;exitDx=0;exitDy=0;entryX=0.489;entryY=1;entryDx=0;entryDy=0;entryPerimeter=0;endArrow=classic;endFill=1;" parent="1" source="30" target="88" edge="1">
          <mxGeometry relative="1" as="geometry" />
        </mxCell>
        <mxCell id="379" style="edgeStyle=orthogonalEdgeStyle;curved=1;html=1;entryX=0.46;entryY=-0.061;entryDx=0;entryDy=0;entryPerimeter=0;endArrow=classic;endFill=1;exitX=0.49;exitY=-0.061;exitDx=0;exitDy=0;exitPerimeter=0;startArrow=none;startFill=0;dashed=1;" parent="1" source="135" target="308" edge="1">
          <mxGeometry relative="1" as="geometry">
            <Array as="points">
              <mxPoint x="107" y="304" />
              <mxPoint x="144" y="304" />
            </Array>
          </mxGeometry>
        </mxCell>
        <mxCell id="135" value="$${q}_1$$" style="text;align=center;verticalAlign=middle;resizable=0;points=[];autosize=1;strokeColor=none;fillColor=none;html=1;" parent="1" vertex="1">
          <mxGeometry x="68" y="332" width="80" height="30" as="geometry" />
        </mxCell>
        <mxCell id="308" value="$${k}_1$$" style="text;align=center;verticalAlign=middle;resizable=0;points=[];autosize=1;strokeColor=none;fillColor=none;html=1;" parent="1" vertex="1">
          <mxGeometry x="107" y="332" width="80" height="30" as="geometry" />
        </mxCell>
        <mxCell id="309" value="$${v}_1$$" style="text;align=center;verticalAlign=middle;resizable=0;points=[];autosize=1;strokeColor=none;fillColor=none;html=1;" parent="1" vertex="1">
          <mxGeometry x="146.75" y="332" width="80" height="30" as="geometry" />
        </mxCell>
        <mxCell id="310" value="" style="verticalLabelPosition=bottom;verticalAlign=top;html=1;shape=offPageConnector;rounded=0;size=0.5;strokeWidth=1;fillColor=none;rotation=-180;" parent="1" vertex="1">
          <mxGeometry x="385.75" y="510" width="32.5" height="40" as="geometry" />
        </mxCell>
        <mxCell id="311" style="edgeStyle=elbowEdgeStyle;html=1;entryX=0;entryY=0.5;entryDx=0;entryDy=0;endArrow=classicThin;endFill=1;exitX=0;exitY=0.5;exitDx=0;exitDy=0;" parent="1" source="312" target="314" edge="1">
          <mxGeometry relative="1" as="geometry">
            <Array as="points">
              <mxPoint x="353" y="750" />
            </Array>
          </mxGeometry>
        </mxCell>
        <mxCell id="312" value="" style="rounded=1;whiteSpace=wrap;html=1;" parent="1" vertex="1">
          <mxGeometry x="383" y="769" width="120" height="30" as="geometry" />
        </mxCell>
        <mxCell id="313" value="" style="group" parent="1" vertex="1" connectable="0">
          <mxGeometry x="383" y="697" width="120" height="20" as="geometry" />
        </mxCell>
        <mxCell id="314" value="" style="rounded=0;whiteSpace=wrap;html=1;" parent="313" vertex="1">
          <mxGeometry width="20" height="20" as="geometry" />
        </mxCell>
        <mxCell id="315" value="" style="rounded=0;whiteSpace=wrap;html=1;" parent="313" vertex="1">
          <mxGeometry x="20" width="20" height="20" as="geometry" />
        </mxCell>
        <mxCell id="316" value="" style="rounded=0;whiteSpace=wrap;html=1;" parent="313" vertex="1">
          <mxGeometry x="40" width="20" height="20" as="geometry" />
        </mxCell>
        <mxCell id="317" value="" style="rounded=0;whiteSpace=wrap;html=1;" parent="313" vertex="1">
          <mxGeometry x="60" width="20" height="20" as="geometry" />
        </mxCell>
        <mxCell id="318" value="" style="rounded=0;whiteSpace=wrap;html=1;" parent="313" vertex="1">
          <mxGeometry x="80" width="20" height="20" as="geometry" />
        </mxCell>
        <mxCell id="319" value="" style="rounded=0;whiteSpace=wrap;html=1;" parent="313" vertex="1">
          <mxGeometry x="100" width="20" height="20" as="geometry" />
        </mxCell>
        <mxCell id="320" value="" style="group;fillColor=none;fontColor=#ffffff;strokeColor=#2D7600;" parent="1" vertex="1" connectable="0">
          <mxGeometry x="383" y="726" width="120" height="20" as="geometry" />
        </mxCell>
        <mxCell id="321" value="" style="rounded=0;whiteSpace=wrap;html=1;fillColor=none;fontColor=#ffffff;strokeColor=#2D7600;" parent="320" vertex="1">
          <mxGeometry width="20" height="20" as="geometry" />
        </mxCell>
        <mxCell id="322" value="" style="rounded=0;whiteSpace=wrap;html=1;fillColor=none;fontColor=#ffffff;strokeColor=#2D7600;" parent="320" vertex="1">
          <mxGeometry x="20" width="20" height="20" as="geometry" />
        </mxCell>
        <mxCell id="323" value="" style="rounded=0;whiteSpace=wrap;html=1;fillColor=none;fontColor=#ffffff;strokeColor=#2D7600;" parent="320" vertex="1">
          <mxGeometry x="40" width="20" height="20" as="geometry" />
        </mxCell>
        <mxCell id="324" value="" style="rounded=0;whiteSpace=wrap;html=1;fillColor=none;fontColor=#ffffff;strokeColor=#2D7600;" parent="320" vertex="1">
          <mxGeometry x="60" width="20" height="20" as="geometry" />
        </mxCell>
        <mxCell id="325" value="" style="rounded=0;whiteSpace=wrap;html=1;fillColor=none;fontColor=#ffffff;strokeColor=#2D7600;" parent="320" vertex="1">
          <mxGeometry x="80" width="20" height="20" as="geometry" />
        </mxCell>
        <mxCell id="326" value="" style="rounded=0;whiteSpace=wrap;html=1;fillColor=none;fontColor=#ffffff;strokeColor=#2D7600;" parent="320" vertex="1">
          <mxGeometry x="100" width="20" height="20" as="geometry" />
        </mxCell>
        <mxCell id="327" value="" style="group" parent="1" vertex="1" connectable="0">
          <mxGeometry x="433" y="658" width="20" height="20" as="geometry" />
        </mxCell>
        <mxCell id="328" value="" style="ellipse;whiteSpace=wrap;html=1;aspect=fixed;fillColor=none;" parent="327" vertex="1">
          <mxGeometry width="20" height="20" as="geometry" />
        </mxCell>
        <mxCell id="329" value="" style="endArrow=none;html=1;entryX=0.5;entryY=0;entryDx=0;entryDy=0;exitX=0.5;exitY=1;exitDx=0;exitDy=0;" parent="327" source="328" target="328" edge="1">
          <mxGeometry width="50" height="50" relative="1" as="geometry">
            <mxPoint x="60" y="120" as="sourcePoint" />
            <mxPoint x="110" y="70" as="targetPoint" />
          </mxGeometry>
        </mxCell>
        <mxCell id="330" value="" style="endArrow=none;html=1;exitX=0;exitY=0.5;exitDx=0;exitDy=0;entryX=1;entryY=0.5;entryDx=0;entryDy=0;" parent="327" source="328" target="328" edge="1">
          <mxGeometry width="50" height="50" relative="1" as="geometry">
            <mxPoint x="60" y="120" as="sourcePoint" />
            <mxPoint x="110" y="70" as="targetPoint" />
          </mxGeometry>
        </mxCell>
        <mxCell id="331" value="" style="endArrow=classic;html=1;exitX=0;exitY=0;exitDx=0;exitDy=0;entryX=0.5;entryY=1;entryDx=0;entryDy=0;" parent="1" source="317" target="328" edge="1">
          <mxGeometry width="50" height="50" relative="1" as="geometry">
            <mxPoint x="483" y="640" as="sourcePoint" />
            <mxPoint x="443" y="670" as="targetPoint" />
          </mxGeometry>
        </mxCell>
        <mxCell id="332" value="" style="endArrow=classicThin;html=1;edgeStyle=elbowEdgeStyle;exitX=1;exitY=0.5;exitDx=0;exitDy=0;entryX=1;entryY=0.5;entryDx=0;entryDy=0;endFill=1;" parent="1" source="326" target="328" edge="1">
          <mxGeometry width="50" height="50" relative="1" as="geometry">
            <mxPoint x="483" y="640" as="sourcePoint" />
            <mxPoint x="533" y="590" as="targetPoint" />
            <Array as="points">
              <mxPoint x="533" y="710" />
            </Array>
          </mxGeometry>
        </mxCell>
        <mxCell id="333" value="" style="group" parent="1" vertex="1" connectable="0">
          <mxGeometry x="383" y="600" width="120" height="42" as="geometry" />
        </mxCell>
        <mxCell id="334" value="" style="rounded=0;whiteSpace=wrap;html=1;" parent="333" vertex="1">
          <mxGeometry y="19" width="20" height="20" as="geometry" />
        </mxCell>
        <mxCell id="335" value="" style="rounded=0;whiteSpace=wrap;html=1;" parent="333" vertex="1">
          <mxGeometry x="20" y="19" width="20" height="20" as="geometry" />
        </mxCell>
        <mxCell id="336" value="" style="rounded=0;whiteSpace=wrap;html=1;" parent="333" vertex="1">
          <mxGeometry x="40" y="19" width="20" height="20" as="geometry" />
        </mxCell>
        <mxCell id="337" value="" style="rounded=0;whiteSpace=wrap;html=1;" parent="333" vertex="1">
          <mxGeometry x="60" y="19" width="20" height="20" as="geometry" />
        </mxCell>
        <mxCell id="338" value="" style="rounded=0;whiteSpace=wrap;html=1;" parent="333" vertex="1">
          <mxGeometry x="80" y="19" width="20" height="20" as="geometry" />
        </mxCell>
        <mxCell id="339" value="" style="rounded=0;whiteSpace=wrap;html=1;" parent="333" vertex="1">
          <mxGeometry x="100" y="19" width="20" height="20" as="geometry" />
        </mxCell>
        <mxCell id="340" value="$$\tilde{c}_2$$" style="text;align=center;verticalAlign=middle;resizable=0;points=[];autosize=1;strokeColor=none;fillColor=none;html=1;" parent="333" vertex="1">
          <mxGeometry x="-63" y="16" width="97" height="26" as="geometry" />
        </mxCell>
        <mxCell id="341" style="edgeStyle=orthogonalEdgeStyle;html=1;exitX=0.5;exitY=0;exitDx=0;exitDy=0;entryX=0;entryY=1;entryDx=0;entryDy=0;endArrow=classicThin;endFill=1;" parent="1" source="328" target="337" edge="1">
          <mxGeometry relative="1" as="geometry" />
        </mxCell>
        <mxCell id="342" value="" style="group;fillColor=#d80073;fontColor=#ffffff;strokeColor=#A50040;rotation=-90;" parent="1" vertex="1" connectable="0">
          <mxGeometry x="342" y="420" width="120" height="20" as="geometry" />
        </mxCell>
        <mxCell id="343" value="" style="rounded=0;whiteSpace=wrap;html=1;fillColor=#d80073;fontColor=#ffffff;strokeColor=#A50040;rotation=-90;" parent="342" vertex="1">
          <mxGeometry x="50" y="50" width="20" height="20" as="geometry" />
        </mxCell>
        <mxCell id="344" value="" style="rounded=0;whiteSpace=wrap;html=1;fillColor=#d80073;fontColor=#ffffff;strokeColor=#A50040;rotation=-90;" parent="342" vertex="1">
          <mxGeometry x="50" y="30" width="20" height="20" as="geometry" />
        </mxCell>
        <mxCell id="345" value="" style="rounded=0;whiteSpace=wrap;html=1;fillColor=#d80073;fontColor=#ffffff;strokeColor=#A50040;rotation=-90;" parent="342" vertex="1">
          <mxGeometry x="50" y="10" width="20" height="20" as="geometry" />
        </mxCell>
        <mxCell id="346" value="" style="rounded=0;whiteSpace=wrap;html=1;fillColor=#d80073;fontColor=#ffffff;strokeColor=#A50040;rotation=-90;" parent="342" vertex="1">
          <mxGeometry x="50" y="-10" width="20" height="20" as="geometry" />
        </mxCell>
        <mxCell id="347" value="" style="rounded=0;whiteSpace=wrap;html=1;fillColor=#d80073;fontColor=#ffffff;strokeColor=#A50040;rotation=-90;" parent="342" vertex="1">
          <mxGeometry x="50" y="-30" width="20" height="20" as="geometry" />
        </mxCell>
        <mxCell id="348" value="" style="rounded=0;whiteSpace=wrap;html=1;fillColor=#d80073;fontColor=#ffffff;strokeColor=#A50040;rotation=-90;" parent="342" vertex="1">
          <mxGeometry x="50" y="-50" width="20" height="20" as="geometry" />
        </mxCell>
        <mxCell id="349" style="edgeStyle=orthogonalEdgeStyle;curved=1;html=1;entryX=0;entryY=0.5;entryDx=0;entryDy=0;endArrow=classic;endFill=1;" parent="1" source="310" target="343" edge="1">
          <mxGeometry relative="1" as="geometry" />
        </mxCell>
        <mxCell id="350" value="$$W_q$$" style="text;align=center;verticalAlign=middle;resizable=0;points=[];autosize=1;strokeColor=none;fillColor=none;html=1;" parent="1" vertex="1">
          <mxGeometry x="364" y="520" width="70" height="30" as="geometry" />
        </mxCell>
        <mxCell id="351" value="$${c}_2$$" style="text;align=center;verticalAlign=middle;resizable=0;points=[];autosize=1;strokeColor=none;fillColor=none;html=1;" parent="1" vertex="1">
          <mxGeometry x="483" y="693" width="72" height="26" as="geometry" />
        </mxCell>
        <mxCell id="352" value="$${p}_2$$" style="text;align=center;verticalAlign=middle;resizable=0;points=[];autosize=1;strokeColor=none;fillColor=none;html=1;" parent="1" vertex="1">
          <mxGeometry x="337" y="723" width="73" height="26" as="geometry" />
        </mxCell>
        <mxCell id="353" value="" style="group;fillColor=#0050ef;fontColor=#ffffff;strokeColor=#001DBC;rotation=-90;" parent="1" vertex="1" connectable="0">
          <mxGeometry x="382" y="420" width="120" height="20" as="geometry" />
        </mxCell>
        <mxCell id="354" value="" style="rounded=0;whiteSpace=wrap;html=1;fillColor=#0050ef;fontColor=#ffffff;strokeColor=#001DBC;rotation=-90;" parent="353" vertex="1">
          <mxGeometry x="50" y="50" width="20" height="20" as="geometry" />
        </mxCell>
        <mxCell id="355" value="" style="rounded=0;whiteSpace=wrap;html=1;fillColor=#0050ef;fontColor=#ffffff;strokeColor=#001DBC;rotation=-90;" parent="353" vertex="1">
          <mxGeometry x="50" y="30" width="20" height="20" as="geometry" />
        </mxCell>
        <mxCell id="356" value="" style="rounded=0;whiteSpace=wrap;html=1;fillColor=#0050ef;fontColor=#ffffff;strokeColor=#001DBC;rotation=-90;" parent="353" vertex="1">
          <mxGeometry x="50" y="10" width="20" height="20" as="geometry" />
        </mxCell>
        <mxCell id="357" value="" style="rounded=0;whiteSpace=wrap;html=1;fillColor=#0050ef;fontColor=#ffffff;strokeColor=#001DBC;rotation=-90;" parent="353" vertex="1">
          <mxGeometry x="50" y="-10" width="20" height="20" as="geometry" />
        </mxCell>
        <mxCell id="358" value="" style="rounded=0;whiteSpace=wrap;html=1;fillColor=#0050ef;fontColor=#ffffff;strokeColor=#001DBC;rotation=-90;" parent="353" vertex="1">
          <mxGeometry x="50" y="-30" width="20" height="20" as="geometry" />
        </mxCell>
        <mxCell id="359" value="" style="rounded=0;whiteSpace=wrap;html=1;fillColor=#0050ef;fontColor=#ffffff;strokeColor=#001DBC;rotation=-90;" parent="353" vertex="1">
          <mxGeometry x="50" y="-50" width="20" height="20" as="geometry" />
        </mxCell>
        <mxCell id="360" style="edgeStyle=orthogonalEdgeStyle;curved=1;html=1;entryX=0;entryY=0.5;entryDx=0;entryDy=0;endArrow=classic;endFill=1;" parent="1" source="361" target="354" edge="1">
          <mxGeometry relative="1" as="geometry" />
        </mxCell>
        <mxCell id="361" value="" style="verticalLabelPosition=bottom;verticalAlign=top;html=1;shape=offPageConnector;rounded=0;size=0.5;strokeWidth=1;fillColor=none;rotation=-180;" parent="1" vertex="1">
          <mxGeometry x="425.75" y="510" width="32.5" height="40" as="geometry" />
        </mxCell>
        <mxCell id="362" value="" style="group;fillColor=#60a917;fontColor=#ffffff;strokeColor=#2D7600;rotation=-90;" parent="1" vertex="1" connectable="0">
          <mxGeometry x="422.75" y="420" width="120" height="20" as="geometry" />
        </mxCell>
        <mxCell id="363" value="" style="rounded=0;whiteSpace=wrap;html=1;fillColor=#60a917;fontColor=#ffffff;strokeColor=#2D7600;rotation=-90;" parent="362" vertex="1">
          <mxGeometry x="50" y="50" width="20" height="20" as="geometry" />
        </mxCell>
        <mxCell id="364" value="" style="rounded=0;whiteSpace=wrap;html=1;fillColor=#60a917;fontColor=#ffffff;strokeColor=#2D7600;rotation=-90;" parent="362" vertex="1">
          <mxGeometry x="50" y="30" width="20" height="20" as="geometry" />
        </mxCell>
        <mxCell id="365" value="" style="rounded=0;whiteSpace=wrap;html=1;fillColor=#60a917;fontColor=#ffffff;strokeColor=#2D7600;rotation=-90;" parent="362" vertex="1">
          <mxGeometry x="50" y="10" width="20" height="20" as="geometry" />
        </mxCell>
        <mxCell id="366" value="" style="rounded=0;whiteSpace=wrap;html=1;fillColor=#60a917;fontColor=#ffffff;strokeColor=#2D7600;rotation=-90;" parent="362" vertex="1">
          <mxGeometry x="50" y="-10" width="20" height="20" as="geometry" />
        </mxCell>
        <mxCell id="367" value="" style="rounded=0;whiteSpace=wrap;html=1;fillColor=#60a917;fontColor=#ffffff;strokeColor=#2D7600;rotation=-90;" parent="362" vertex="1">
          <mxGeometry x="50" y="-30" width="20" height="20" as="geometry" />
        </mxCell>
        <mxCell id="368" value="" style="rounded=0;whiteSpace=wrap;html=1;fillColor=#60a917;fontColor=#ffffff;strokeColor=#2D7600;rotation=-90;" parent="362" vertex="1">
          <mxGeometry x="50" y="-50" width="20" height="20" as="geometry" />
        </mxCell>
        <mxCell id="369" style="edgeStyle=orthogonalEdgeStyle;curved=1;html=1;entryX=0;entryY=0.5;entryDx=0;entryDy=0;endArrow=classic;endFill=1;" parent="1" source="370" target="363" edge="1">
          <mxGeometry relative="1" as="geometry" />
        </mxCell>
        <mxCell id="370" value="" style="verticalLabelPosition=bottom;verticalAlign=top;html=1;shape=offPageConnector;rounded=0;size=0.5;strokeWidth=1;fillColor=none;rotation=-180;" parent="1" vertex="1">
          <mxGeometry x="466.5" y="510" width="32.5" height="40" as="geometry" />
        </mxCell>
        <mxCell id="371" value="$$W_k$$" style="text;align=center;verticalAlign=middle;resizable=0;points=[];autosize=1;strokeColor=none;fillColor=none;html=1;" parent="1" vertex="1">
          <mxGeometry x="407" y="520" width="70" height="30" as="geometry" />
        </mxCell>
        <mxCell id="372" value="$$W_v$$" style="text;align=center;verticalAlign=middle;resizable=0;points=[];autosize=1;strokeColor=none;fillColor=none;html=1;" parent="1" vertex="1">
          <mxGeometry x="447.75" y="520" width="70" height="30" as="geometry" />
        </mxCell>
        <mxCell id="373" value="" style="curved=1;endArrow=classic;html=1;exitX=0;exitY=0;exitDx=0;exitDy=0;entryX=0.486;entryY=1.05;entryDx=0;entryDy=0;entryPerimeter=0;edgeStyle=orthogonalEdgeStyle;" parent="1" source="337" target="350" edge="1">
          <mxGeometry width="50" height="50" relative="1" as="geometry">
            <mxPoint x="493" y="540" as="sourcePoint" />
            <mxPoint x="543" y="490" as="targetPoint" />
          </mxGeometry>
        </mxCell>
        <mxCell id="374" value="" style="endArrow=classic;html=1;exitX=0;exitY=0;exitDx=0;exitDy=0;" parent="1" source="337" target="371" edge="1">
          <mxGeometry width="50" height="50" relative="1" as="geometry">
            <mxPoint x="484" y="617.5" as="sourcePoint" />
            <mxPoint x="453" y="550" as="targetPoint" />
          </mxGeometry>
        </mxCell>
        <mxCell id="375" style="edgeStyle=orthogonalEdgeStyle;curved=1;html=1;exitX=0;exitY=0;exitDx=0;exitDy=0;entryX=0.489;entryY=1;entryDx=0;entryDy=0;entryPerimeter=0;endArrow=classic;endFill=1;" parent="1" source="337" target="372" edge="1">
          <mxGeometry relative="1" as="geometry" />
        </mxCell>
        <mxCell id="376" value="$${q}_2$$" style="text;align=center;verticalAlign=middle;resizable=0;points=[];autosize=1;strokeColor=none;fillColor=none;html=1;" parent="1" vertex="1">
          <mxGeometry x="368" y="344" width="73" height="26" as="geometry" />
        </mxCell>
        <mxCell id="377" value="$${k}_2$$" style="text;align=center;verticalAlign=middle;resizable=0;points=[];autosize=1;strokeColor=none;fillColor=none;html=1;" parent="1" vertex="1">
          <mxGeometry x="407" y="345" width="72" height="26" as="geometry" />
        </mxCell>
        <mxCell id="378" value="$${v}_2$$" style="text;align=center;verticalAlign=middle;resizable=0;points=[];autosize=1;strokeColor=none;fillColor=none;html=1;" parent="1" vertex="1">
          <mxGeometry x="445.75" y="345" width="72" height="26" as="geometry" />
        </mxCell>
        <mxCell id="380" value="" style="verticalLabelPosition=bottom;verticalAlign=top;html=1;shape=offPageConnector;rounded=0;size=0.5;strokeWidth=1;fillColor=none;rotation=-180;" parent="1" vertex="1">
          <mxGeometry x="668.75" y="525" width="32.5" height="40" as="geometry" />
        </mxCell>
        <mxCell id="381" style="edgeStyle=elbowEdgeStyle;html=1;entryX=0;entryY=0.5;entryDx=0;entryDy=0;endArrow=classicThin;endFill=1;exitX=0;exitY=0.5;exitDx=0;exitDy=0;" parent="1" source="382" target="384" edge="1">
          <mxGeometry relative="1" as="geometry">
            <Array as="points">
              <mxPoint x="636" y="765" />
            </Array>
          </mxGeometry>
        </mxCell>
        <mxCell id="382" value="" style="rounded=1;whiteSpace=wrap;html=1;" parent="1" vertex="1">
          <mxGeometry x="666" y="784" width="120" height="30" as="geometry" />
        </mxCell>
        <mxCell id="383" value="" style="group" parent="1" vertex="1" connectable="0">
          <mxGeometry x="666" y="712" width="120" height="20" as="geometry" />
        </mxCell>
        <mxCell id="384" value="" style="rounded=0;whiteSpace=wrap;html=1;" parent="383" vertex="1">
          <mxGeometry width="20" height="20" as="geometry" />
        </mxCell>
        <mxCell id="385" value="" style="rounded=0;whiteSpace=wrap;html=1;" parent="383" vertex="1">
          <mxGeometry x="20" width="20" height="20" as="geometry" />
        </mxCell>
        <mxCell id="386" value="" style="rounded=0;whiteSpace=wrap;html=1;" parent="383" vertex="1">
          <mxGeometry x="40" width="20" height="20" as="geometry" />
        </mxCell>
        <mxCell id="387" value="" style="rounded=0;whiteSpace=wrap;html=1;" parent="383" vertex="1">
          <mxGeometry x="60" width="20" height="20" as="geometry" />
        </mxCell>
        <mxCell id="388" value="" style="rounded=0;whiteSpace=wrap;html=1;" parent="383" vertex="1">
          <mxGeometry x="80" width="20" height="20" as="geometry" />
        </mxCell>
        <mxCell id="389" value="" style="rounded=0;whiteSpace=wrap;html=1;" parent="383" vertex="1">
          <mxGeometry x="100" width="20" height="20" as="geometry" />
        </mxCell>
        <mxCell id="390" value="" style="group;fillColor=none;fontColor=#ffffff;strokeColor=#2D7600;" parent="1" vertex="1" connectable="0">
          <mxGeometry x="666" y="741" width="120" height="20" as="geometry" />
        </mxCell>
        <mxCell id="391" value="" style="rounded=0;whiteSpace=wrap;html=1;fillColor=none;fontColor=#ffffff;strokeColor=#2D7600;" parent="390" vertex="1">
          <mxGeometry width="20" height="20" as="geometry" />
        </mxCell>
        <mxCell id="392" value="" style="rounded=0;whiteSpace=wrap;html=1;fillColor=none;fontColor=#ffffff;strokeColor=#2D7600;" parent="390" vertex="1">
          <mxGeometry x="20" width="20" height="20" as="geometry" />
        </mxCell>
        <mxCell id="393" value="" style="rounded=0;whiteSpace=wrap;html=1;fillColor=none;fontColor=#ffffff;strokeColor=#2D7600;" parent="390" vertex="1">
          <mxGeometry x="40" width="20" height="20" as="geometry" />
        </mxCell>
        <mxCell id="394" value="" style="rounded=0;whiteSpace=wrap;html=1;fillColor=none;fontColor=#ffffff;strokeColor=#2D7600;" parent="390" vertex="1">
          <mxGeometry x="60" width="20" height="20" as="geometry" />
        </mxCell>
        <mxCell id="395" value="" style="rounded=0;whiteSpace=wrap;html=1;fillColor=none;fontColor=#ffffff;strokeColor=#2D7600;" parent="390" vertex="1">
          <mxGeometry x="80" width="20" height="20" as="geometry" />
        </mxCell>
        <mxCell id="396" value="" style="rounded=0;whiteSpace=wrap;html=1;fillColor=none;fontColor=#ffffff;strokeColor=#2D7600;" parent="390" vertex="1">
          <mxGeometry x="100" width="20" height="20" as="geometry" />
        </mxCell>
        <mxCell id="397" value="" style="group" parent="1" vertex="1" connectable="0">
          <mxGeometry x="716" y="673" width="20" height="20" as="geometry" />
        </mxCell>
        <mxCell id="398" value="" style="ellipse;whiteSpace=wrap;html=1;aspect=fixed;fillColor=none;" parent="397" vertex="1">
          <mxGeometry width="20" height="20" as="geometry" />
        </mxCell>
        <mxCell id="399" value="" style="endArrow=none;html=1;entryX=0.5;entryY=0;entryDx=0;entryDy=0;exitX=0.5;exitY=1;exitDx=0;exitDy=0;" parent="397" source="398" target="398" edge="1">
          <mxGeometry width="50" height="50" relative="1" as="geometry">
            <mxPoint x="60" y="120" as="sourcePoint" />
            <mxPoint x="110" y="70" as="targetPoint" />
          </mxGeometry>
        </mxCell>
        <mxCell id="400" value="" style="endArrow=none;html=1;exitX=0;exitY=0.5;exitDx=0;exitDy=0;entryX=1;entryY=0.5;entryDx=0;entryDy=0;" parent="397" source="398" target="398" edge="1">
          <mxGeometry width="50" height="50" relative="1" as="geometry">
            <mxPoint x="60" y="120" as="sourcePoint" />
            <mxPoint x="110" y="70" as="targetPoint" />
          </mxGeometry>
        </mxCell>
        <mxCell id="401" value="" style="endArrow=classic;html=1;exitX=0;exitY=0;exitDx=0;exitDy=0;entryX=0.5;entryY=1;entryDx=0;entryDy=0;" parent="1" source="387" target="398" edge="1">
          <mxGeometry width="50" height="50" relative="1" as="geometry">
            <mxPoint x="766" y="655" as="sourcePoint" />
            <mxPoint x="726" y="685" as="targetPoint" />
          </mxGeometry>
        </mxCell>
        <mxCell id="402" value="" style="endArrow=classicThin;html=1;edgeStyle=elbowEdgeStyle;exitX=1;exitY=0.5;exitDx=0;exitDy=0;entryX=1;entryY=0.5;entryDx=0;entryDy=0;endFill=1;" parent="1" source="396" target="398" edge="1">
          <mxGeometry width="50" height="50" relative="1" as="geometry">
            <mxPoint x="766" y="655" as="sourcePoint" />
            <mxPoint x="816" y="605" as="targetPoint" />
            <Array as="points">
              <mxPoint x="816" y="725" />
            </Array>
          </mxGeometry>
        </mxCell>
        <mxCell id="403" value="" style="group" parent="1" vertex="1" connectable="0">
          <mxGeometry x="666" y="615" width="120" height="42" as="geometry" />
        </mxCell>
        <mxCell id="404" value="" style="rounded=0;whiteSpace=wrap;html=1;" parent="403" vertex="1">
          <mxGeometry y="19" width="20" height="20" as="geometry" />
        </mxCell>
        <mxCell id="405" value="" style="rounded=0;whiteSpace=wrap;html=1;" parent="403" vertex="1">
          <mxGeometry x="20" y="19" width="20" height="20" as="geometry" />
        </mxCell>
        <mxCell id="406" value="" style="rounded=0;whiteSpace=wrap;html=1;" parent="403" vertex="1">
          <mxGeometry x="40" y="19" width="20" height="20" as="geometry" />
        </mxCell>
        <mxCell id="407" value="" style="rounded=0;whiteSpace=wrap;html=1;" parent="403" vertex="1">
          <mxGeometry x="60" y="19" width="20" height="20" as="geometry" />
        </mxCell>
        <mxCell id="408" value="" style="rounded=0;whiteSpace=wrap;html=1;" parent="403" vertex="1">
          <mxGeometry x="80" y="19" width="20" height="20" as="geometry" />
        </mxCell>
        <mxCell id="409" value="" style="rounded=0;whiteSpace=wrap;html=1;" parent="403" vertex="1">
          <mxGeometry x="100" y="19" width="20" height="20" as="geometry" />
        </mxCell>
        <mxCell id="410" value="$$\tilde{c}_3$$" style="text;align=center;verticalAlign=middle;resizable=0;points=[];autosize=1;strokeColor=none;fillColor=none;html=1;" parent="403" vertex="1">
          <mxGeometry x="-63" y="16" width="97" height="26" as="geometry" />
        </mxCell>
        <mxCell id="411" style="edgeStyle=orthogonalEdgeStyle;html=1;exitX=0.5;exitY=0;exitDx=0;exitDy=0;entryX=0;entryY=1;entryDx=0;entryDy=0;endArrow=classicThin;endFill=1;" parent="1" source="398" target="407" edge="1">
          <mxGeometry relative="1" as="geometry" />
        </mxCell>
        <mxCell id="412" value="" style="group;fillColor=#d80073;fontColor=#ffffff;strokeColor=#A50040;rotation=-90;" parent="1" vertex="1" connectable="0">
          <mxGeometry x="625" y="435" width="120" height="20" as="geometry" />
        </mxCell>
        <mxCell id="413" value="" style="rounded=0;whiteSpace=wrap;html=1;fillColor=#d80073;fontColor=#ffffff;strokeColor=#A50040;rotation=-90;" parent="412" vertex="1">
          <mxGeometry x="50" y="50" width="20" height="20" as="geometry" />
        </mxCell>
        <mxCell id="414" value="" style="rounded=0;whiteSpace=wrap;html=1;fillColor=#d80073;fontColor=#ffffff;strokeColor=#A50040;rotation=-90;" parent="412" vertex="1">
          <mxGeometry x="50" y="30" width="20" height="20" as="geometry" />
        </mxCell>
        <mxCell id="415" value="" style="rounded=0;whiteSpace=wrap;html=1;fillColor=#d80073;fontColor=#ffffff;strokeColor=#A50040;rotation=-90;" parent="412" vertex="1">
          <mxGeometry x="50" y="10" width="20" height="20" as="geometry" />
        </mxCell>
        <mxCell id="416" value="" style="rounded=0;whiteSpace=wrap;html=1;fillColor=#d80073;fontColor=#ffffff;strokeColor=#A50040;rotation=-90;" parent="412" vertex="1">
          <mxGeometry x="50" y="-10" width="20" height="20" as="geometry" />
        </mxCell>
        <mxCell id="417" value="" style="rounded=0;whiteSpace=wrap;html=1;fillColor=#d80073;fontColor=#ffffff;strokeColor=#A50040;rotation=-90;" parent="412" vertex="1">
          <mxGeometry x="50" y="-30" width="20" height="20" as="geometry" />
        </mxCell>
        <mxCell id="418" value="" style="rounded=0;whiteSpace=wrap;html=1;fillColor=#d80073;fontColor=#ffffff;strokeColor=#A50040;rotation=-90;" parent="412" vertex="1">
          <mxGeometry x="50" y="-50" width="20" height="20" as="geometry" />
        </mxCell>
        <mxCell id="419" style="edgeStyle=orthogonalEdgeStyle;curved=1;html=1;entryX=0;entryY=0.5;entryDx=0;entryDy=0;endArrow=classic;endFill=1;" parent="1" source="380" target="413" edge="1">
          <mxGeometry relative="1" as="geometry" />
        </mxCell>
        <mxCell id="420" value="$$W_q$$" style="text;align=center;verticalAlign=middle;resizable=0;points=[];autosize=1;strokeColor=none;fillColor=none;html=1;" parent="1" vertex="1">
          <mxGeometry x="647" y="535" width="70" height="30" as="geometry" />
        </mxCell>
        <mxCell id="421" value="$${c}_3$$" style="text;align=center;verticalAlign=middle;resizable=0;points=[];autosize=1;strokeColor=none;fillColor=none;html=1;" parent="1" vertex="1">
          <mxGeometry x="766" y="708" width="72" height="26" as="geometry" />
        </mxCell>
        <mxCell id="422" value="$${p}_3$$" style="text;align=center;verticalAlign=middle;resizable=0;points=[];autosize=1;strokeColor=none;fillColor=none;html=1;" parent="1" vertex="1">
          <mxGeometry x="620" y="738" width="73" height="26" as="geometry" />
        </mxCell>
        <mxCell id="423" value="" style="group;fillColor=#0050ef;fontColor=#ffffff;strokeColor=#001DBC;rotation=-90;" parent="1" vertex="1" connectable="0">
          <mxGeometry x="665" y="435" width="120" height="20" as="geometry" />
        </mxCell>
        <mxCell id="424" value="" style="rounded=0;whiteSpace=wrap;html=1;fillColor=#0050ef;fontColor=#ffffff;strokeColor=#001DBC;rotation=-90;" parent="423" vertex="1">
          <mxGeometry x="50" y="50" width="20" height="20" as="geometry" />
        </mxCell>
        <mxCell id="425" value="" style="rounded=0;whiteSpace=wrap;html=1;fillColor=#0050ef;fontColor=#ffffff;strokeColor=#001DBC;rotation=-90;" parent="423" vertex="1">
          <mxGeometry x="50" y="30" width="20" height="20" as="geometry" />
        </mxCell>
        <mxCell id="426" value="" style="rounded=0;whiteSpace=wrap;html=1;fillColor=#0050ef;fontColor=#ffffff;strokeColor=#001DBC;rotation=-90;" parent="423" vertex="1">
          <mxGeometry x="50" y="10" width="20" height="20" as="geometry" />
        </mxCell>
        <mxCell id="427" value="" style="rounded=0;whiteSpace=wrap;html=1;fillColor=#0050ef;fontColor=#ffffff;strokeColor=#001DBC;rotation=-90;" parent="423" vertex="1">
          <mxGeometry x="50" y="-10" width="20" height="20" as="geometry" />
        </mxCell>
        <mxCell id="428" value="" style="rounded=0;whiteSpace=wrap;html=1;fillColor=#0050ef;fontColor=#ffffff;strokeColor=#001DBC;rotation=-90;" parent="423" vertex="1">
          <mxGeometry x="50" y="-30" width="20" height="20" as="geometry" />
        </mxCell>
        <mxCell id="429" value="" style="rounded=0;whiteSpace=wrap;html=1;fillColor=#0050ef;fontColor=#ffffff;strokeColor=#001DBC;rotation=-90;" parent="423" vertex="1">
          <mxGeometry x="50" y="-50" width="20" height="20" as="geometry" />
        </mxCell>
        <mxCell id="430" style="edgeStyle=orthogonalEdgeStyle;curved=1;html=1;entryX=0;entryY=0.5;entryDx=0;entryDy=0;endArrow=classic;endFill=1;" parent="1" source="431" target="424" edge="1">
          <mxGeometry relative="1" as="geometry" />
        </mxCell>
        <mxCell id="431" value="" style="verticalLabelPosition=bottom;verticalAlign=top;html=1;shape=offPageConnector;rounded=0;size=0.5;strokeWidth=1;fillColor=none;rotation=-180;" parent="1" vertex="1">
          <mxGeometry x="708.75" y="525" width="32.5" height="40" as="geometry" />
        </mxCell>
        <mxCell id="432" value="" style="group;fillColor=#60a917;fontColor=#ffffff;strokeColor=#2D7600;rotation=-90;" parent="1" vertex="1" connectable="0">
          <mxGeometry x="705.75" y="435" width="120" height="20" as="geometry" />
        </mxCell>
        <mxCell id="433" value="" style="rounded=0;whiteSpace=wrap;html=1;fillColor=#60a917;fontColor=#ffffff;strokeColor=#2D7600;rotation=-90;" parent="432" vertex="1">
          <mxGeometry x="50" y="50" width="20" height="20" as="geometry" />
        </mxCell>
        <mxCell id="434" value="" style="rounded=0;whiteSpace=wrap;html=1;fillColor=#60a917;fontColor=#ffffff;strokeColor=#2D7600;rotation=-90;" parent="432" vertex="1">
          <mxGeometry x="50" y="30" width="20" height="20" as="geometry" />
        </mxCell>
        <mxCell id="435" value="" style="rounded=0;whiteSpace=wrap;html=1;fillColor=#60a917;fontColor=#ffffff;strokeColor=#2D7600;rotation=-90;" parent="432" vertex="1">
          <mxGeometry x="50" y="10" width="20" height="20" as="geometry" />
        </mxCell>
        <mxCell id="436" value="" style="rounded=0;whiteSpace=wrap;html=1;fillColor=#60a917;fontColor=#ffffff;strokeColor=#2D7600;rotation=-90;" parent="432" vertex="1">
          <mxGeometry x="50" y="-10" width="20" height="20" as="geometry" />
        </mxCell>
        <mxCell id="437" value="" style="rounded=0;whiteSpace=wrap;html=1;fillColor=#60a917;fontColor=#ffffff;strokeColor=#2D7600;rotation=-90;" parent="432" vertex="1">
          <mxGeometry x="50" y="-30" width="20" height="20" as="geometry" />
        </mxCell>
        <mxCell id="438" value="" style="rounded=0;whiteSpace=wrap;html=1;fillColor=#60a917;fontColor=#ffffff;strokeColor=#2D7600;rotation=-90;" parent="432" vertex="1">
          <mxGeometry x="50" y="-50" width="20" height="20" as="geometry" />
        </mxCell>
        <mxCell id="439" style="edgeStyle=orthogonalEdgeStyle;curved=1;html=1;entryX=0;entryY=0.5;entryDx=0;entryDy=0;endArrow=classic;endFill=1;" parent="1" source="440" target="433" edge="1">
          <mxGeometry relative="1" as="geometry" />
        </mxCell>
        <mxCell id="440" value="" style="verticalLabelPosition=bottom;verticalAlign=top;html=1;shape=offPageConnector;rounded=0;size=0.5;strokeWidth=1;fillColor=none;rotation=-180;" parent="1" vertex="1">
          <mxGeometry x="749.5" y="525" width="32.5" height="40" as="geometry" />
        </mxCell>
        <mxCell id="441" value="$$W_k$$" style="text;align=center;verticalAlign=middle;resizable=0;points=[];autosize=1;strokeColor=none;fillColor=none;html=1;" parent="1" vertex="1">
          <mxGeometry x="690" y="535" width="70" height="30" as="geometry" />
        </mxCell>
        <mxCell id="442" value="$$W_v$$" style="text;align=center;verticalAlign=middle;resizable=0;points=[];autosize=1;strokeColor=none;fillColor=none;html=1;" parent="1" vertex="1">
          <mxGeometry x="730.75" y="535" width="70" height="30" as="geometry" />
        </mxCell>
        <mxCell id="443" value="" style="curved=1;endArrow=classic;html=1;exitX=0;exitY=0;exitDx=0;exitDy=0;entryX=0.486;entryY=1.05;entryDx=0;entryDy=0;entryPerimeter=0;edgeStyle=orthogonalEdgeStyle;" parent="1" source="407" target="420" edge="1">
          <mxGeometry width="50" height="50" relative="1" as="geometry">
            <mxPoint x="776" y="555" as="sourcePoint" />
            <mxPoint x="826" y="505" as="targetPoint" />
          </mxGeometry>
        </mxCell>
        <mxCell id="444" value="" style="endArrow=classic;html=1;exitX=0;exitY=0;exitDx=0;exitDy=0;" parent="1" source="407" target="441" edge="1">
          <mxGeometry width="50" height="50" relative="1" as="geometry">
            <mxPoint x="767" y="632.5" as="sourcePoint" />
            <mxPoint x="736" y="565" as="targetPoint" />
          </mxGeometry>
        </mxCell>
        <mxCell id="445" style="edgeStyle=orthogonalEdgeStyle;curved=1;html=1;exitX=0;exitY=0;exitDx=0;exitDy=0;entryX=0.489;entryY=1;entryDx=0;entryDy=0;entryPerimeter=0;endArrow=classic;endFill=1;" parent="1" source="407" target="442" edge="1">
          <mxGeometry relative="1" as="geometry" />
        </mxCell>
        <mxCell id="446" value="$${q}_2$$" style="text;align=center;verticalAlign=middle;resizable=0;points=[];autosize=1;strokeColor=none;fillColor=none;html=1;" parent="1" vertex="1">
          <mxGeometry x="651" y="359" width="73" height="26" as="geometry" />
        </mxCell>
        <mxCell id="447" value="$${k}_2$$" style="text;align=center;verticalAlign=middle;resizable=0;points=[];autosize=1;strokeColor=none;fillColor=none;html=1;" parent="1" vertex="1">
          <mxGeometry x="690" y="360" width="72" height="26" as="geometry" />
        </mxCell>
        <mxCell id="448" value="$${v}_2$$" style="text;align=center;verticalAlign=middle;resizable=0;points=[];autosize=1;strokeColor=none;fillColor=none;html=1;" parent="1" vertex="1">
          <mxGeometry x="728.75" y="360" width="72" height="26" as="geometry" />
        </mxCell>
        <mxCell id="452" value="$$\texttt{softmax}\Big(q_3\cdot k_1+q_3\cdot k_2+q_3\cdot k_3&lt;br&gt;\Big)$$" style="rounded=1;whiteSpace=wrap;html=1;strokeColor=#d6b656;strokeWidth=1;fillColor=#fff2cc;" parent="1" vertex="1">
          <mxGeometry x="578.5" y="47" width="227" height="60" as="geometry" />
        </mxCell>
        <mxCell id="453" value="Attention Scores" style="text;html=1;strokeColor=none;fillColor=none;align=center;verticalAlign=middle;whiteSpace=wrap;rounded=0;strokeWidth=1;fontFamily=Garamond;fontStyle=1;fontSize=17;" parent="1" vertex="1">
          <mxGeometry x="392" y="-63" width="143" height="30" as="geometry" />
        </mxCell>
        <mxCell id="455" value="" style="curved=1;endArrow=classic;html=1;fontFamily=Garamond;fontSize=17;fillColor=#d80073;strokeColor=#A50040;dashed=1;" parent="1" source="376" edge="1">
          <mxGeometry width="50" height="50" relative="1" as="geometry">
            <mxPoint x="385" y="259" as="sourcePoint" />
            <mxPoint x="147" y="314" as="targetPoint" />
            <Array as="points">
              <mxPoint x="398" y="243" />
              <mxPoint x="181" y="229" />
            </Array>
          </mxGeometry>
        </mxCell>
        <mxCell id="456" style="edgeStyle=orthogonalEdgeStyle;curved=1;html=1;entryX=0.46;entryY=-0.061;entryDx=0;entryDy=0;entryPerimeter=0;endArrow=classic;endFill=1;exitX=0.49;exitY=-0.061;exitDx=0;exitDy=0;exitPerimeter=0;startArrow=none;startFill=0;fontSize=17;fontFamily=Garamond;strokeColor=#A50040;fillColor=#d80073;dashed=1;" parent="1" edge="1">
          <mxGeometry relative="1" as="geometry">
            <mxPoint x="404.37000000000006" y="342.1700000000002" as="sourcePoint" />
            <mxPoint x="440.9700000000002" y="342.1700000000002" as="targetPoint" />
            <Array as="points">
              <mxPoint x="404.17" y="316" />
              <mxPoint x="441.17" y="316" />
            </Array>
          </mxGeometry>
        </mxCell>
        <mxCell id="457" value="" style="curved=1;endArrow=classic;html=1;fontFamily=Garamond;fontSize=17;fillColor=#0050ef;strokeColor=#001DBC;exitX=0.479;exitY=0;exitDx=0;exitDy=0;exitPerimeter=0;" parent="1" source="446" edge="1">
          <mxGeometry width="50" height="50" relative="1" as="geometry">
            <mxPoint x="701.2487719298247" y="355" as="sourcePoint" />
            <mxPoint x="444.49" y="325" as="targetPoint" />
            <Array as="points">
              <mxPoint x="659" y="251" />
              <mxPoint x="478.49" y="240" />
            </Array>
          </mxGeometry>
        </mxCell>
        <mxCell id="458" style="edgeStyle=orthogonalEdgeStyle;curved=1;html=1;entryX=0.46;entryY=-0.061;entryDx=0;entryDy=0;entryPerimeter=0;endArrow=classic;endFill=1;exitX=0.49;exitY=-0.061;exitDx=0;exitDy=0;exitPerimeter=0;startArrow=none;startFill=0;fontSize=17;fontFamily=Garamond;strokeColor=#001DBC;fillColor=#0050ef;" parent="1" edge="1">
          <mxGeometry relative="1" as="geometry">
            <mxPoint x="687.3700000000001" y="358.1700000000002" as="sourcePoint" />
            <mxPoint x="723.9700000000003" y="358.1700000000002" as="targetPoint" />
            <Array as="points">
              <mxPoint x="687.1700000000001" y="332" />
              <mxPoint x="724.1700000000001" y="332" />
            </Array>
          </mxGeometry>
        </mxCell>
        <mxCell id="459" value="" style="curved=1;endArrow=classic;html=1;fontFamily=Garamond;fontSize=17;fillColor=#0050ef;strokeColor=#001DBC;exitX=0.479;exitY=0;exitDx=0;exitDy=0;exitPerimeter=0;" parent="1" edge="1">
          <mxGeometry width="50" height="50" relative="1" as="geometry">
            <mxPoint x="684.4769999999999" y="357" as="sourcePoint" />
            <mxPoint x="141" y="296" as="targetPoint" />
            <Array as="points">
              <mxPoint x="631" y="164" />
              <mxPoint x="233" y="139" />
            </Array>
          </mxGeometry>
        </mxCell>
        <mxCell id="460" value="$$\texttt{softmax}\Big(q_2\cdot k_1+q_2\cdot k_2&lt;br&gt;\Big)$$" style="rounded=1;whiteSpace=wrap;html=1;strokeColor=#d6b656;strokeWidth=1;fillColor=#fff2cc;" parent="1" vertex="1">
          <mxGeometry x="327" y="45" width="227" height="60" as="geometry" />
        </mxCell>
        <mxCell id="461" value="$$\texttt{softmax}\Big(q_1\cdot k_1&lt;br&gt;\Big)$$" style="rounded=1;whiteSpace=wrap;html=1;strokeColor=#d6b656;strokeWidth=1;fillColor=#fff2cc;" parent="1" vertex="1">
          <mxGeometry x="53" y="45" width="227" height="60" as="geometry" />
        </mxCell>
      </root>
    </mxGraphModel>
  </diagram>
</mxfile>
